<svg data-v-fde0c5aa="" xmlns="http://www.w3.org/2000/svg" viewBox="0 0 300 300" class="iconLeft"><!----><defs data-v-fde0c5aa=""><!----></defs><rect data-v-fde0c5aa="" fill="transparent" x="0" y="0" width="300px" height="300px" class="logo-background-square"></rect><defs data-v-fde0c5aa=""><!----></defs><g data-v-fde0c5aa="" id="aa825d27-ea9b-4853-990b-aa79d7b4333d" fill="#000000" transform="matrix(1.390313435565961,0,0,1.390313435565961,84.97344285952684,123.02791921742974)"><path d="M6.30 18.16L6.30 18.16Q7.04 18.16 7.48 17.64L7.48 17.64L7.48 17.64Q7.91 17.12 7.91 16.21L7.91 16.21L7.91 16.21Q7.91 15.11 7.38 14.41L7.38 14.41L7.38 14.41Q6.85 13.72 5.81 13.72L5.81 13.72L5.81 13.72Q5.12 13.72 4.52 14.14L4.52 14.14L4.52 22.19L6.96 22.72L6.50 23.63L0.67 23.63L0.67 22.85L1.99 21.81L1.99 14.01L0.43 13.54L0.90 12.63L3.22 12.63L3.22 12.63Q4.47 12.63 5.67 12.54L5.67 12.54L5.67 12.54Q6.57 12.49 6.99 12.49L6.99 12.49L6.99 12.49Q8.08 12.49 8.92 12.92L8.92 12.92L8.92 12.92Q9.76 13.34 10.22 14.08L10.22 14.08L10.22 14.08Q10.68 14.83 10.68 15.74L10.68 15.74L10.68 15.74Q10.68 16.74 9.91 17.63L9.91 17.63L9.91 17.63Q9.14 18.51 7.97 19.01L7.97 19.01L7.97 19.01Q6.79 19.52 5.67 19.46L5.67 19.46L5.05 19.08L5.52 18.17L6.30 18.17L6.30 18.16ZM15.99 15.95L15.99 15.95Q17.02 15.95 17.84 16.43L17.84 16.43L17.84 16.43Q18.65 16.91 19.10 17.75L19.10 17.75L19.10 17.75Q19.56 18.59 19.56 19.61L19.56 19.61L19.56 19.61Q19.56 20.72 18.84 21.68L18.84 21.68L18.84 21.68Q18.13 22.64 17.06 23.21L17.06 23.21L17.06 23.21Q15.99 23.77 14.99 23.77L14.99 23.77L14.99 23.77Q13.97 23.77 13.15 23.29L13.15 23.29L13.15 23.29Q12.33 22.81 11.88 21.97L11.88 21.97L11.88 21.97Q11.42 21.13 11.42 20.10L11.42 20.10L11.42 20.10Q11.42 19.00 12.14 18.04L12.14 18.04L12.14 18.04Q12.85 17.08 13.92 16.51L13.92 16.51L13.92 16.51Q14.99 15.95 15.99 15.95L15.99 15.95ZM15.18 17.57L15.18 17.57Q14.59 17.57 14.29 18.04L14.29 18.04L14.29 18.04Q13.99 18.51 13.99 19.43L13.99 19.43L13.99 19.43Q13.99 20.61 14.46 21.39L14.46 21.39L14.46 21.39Q14.94 22.16 15.81 22.16L15.81 22.16L15.81 22.16Q16.38 22.16 16.68 21.68L16.68 21.68L16.68 21.68Q16.98 21.20 16.98 20.27L16.98 20.27L16.98 20.27Q16.98 19.10 16.51 18.33L16.51 18.33L16.51 18.33Q16.03 17.57 15.18 17.57L15.18 17.57ZM33.36 16.09L33.36 16.87L30.10 23.63L28.34 23.63L27.10 20.62L25.51 23.63L23.74 23.63L21.66 18.56L20.30 17.78L20.30 17.00L23.39 15.82L23.93 17.93L25.45 21.64L26.59 19.38L26.26 18.58L24.89 17.78L24.89 17.00L27.99 15.82L28.52 17.93L30.03 21.57L31.49 18.40L29.40 17.00L29.86 16.09L33.36 16.09ZM38.68 15.95L38.68 15.95Q40.15 15.95 40.96 17.07L40.96 17.07L40.96 17.07Q41.76 18.19 41.73 20.17L41.73 20.17L36.69 20.17L36.69 20.17Q36.83 21.03 37.30 21.54L37.30 21.54L37.30 21.54Q37.76 22.05 38.50 22.05L38.50 22.05L38.50 22.05Q39.48 22.05 41.31 21.07L41.31 21.07L41.73 21.87L39.61 23.56L39.61 23.56Q38.78 23.77 37.69 23.77L37.69 23.77L37.69 23.77Q36.67 23.77 35.85 23.29L35.85 23.29L35.85 23.29Q35.03 22.81 34.57 21.97L34.57 21.97L34.57 21.97Q34.12 21.13 34.12 20.10L34.12 20.10L34.12 20.10Q34.12 19.00 34.83 18.04L34.83 18.04L34.83 18.04Q35.55 17.08 36.62 16.51L36.62 16.51L36.62 16.51Q37.69 15.95 38.68 15.95L38.68 15.95ZM37.91 17.57L37.91 17.57Q37.30 17.57 36.99 17.98L36.99 17.98L36.99 17.98Q36.68 18.40 36.65 19.25L36.65 19.25L39.33 19.25L39.33 19.25Q39.21 18.38 38.91 17.98L38.91 17.98L38.91 17.98Q38.61 17.57 37.90 17.57L37.90 17.57L37.91 17.57ZM47.80 17.93L47.80 17.93Q47.29 17.93 46.79 18.38L46.79 18.38L46.79 22.16L48.92 22.72L48.47 23.63L43.16 23.63L43.16 22.85L44.41 21.80L44.41 18.62L43.16 17.84L43.16 17.05L46.07 15.82L46.61 17.37L47.88 16.06L47.88 16.06Q48.17 15.95 48.57 15.95L48.57 15.95L48.57 15.95Q49.29 15.95 49.82 16.28L49.82 16.28L49.82 16.28Q50.34 16.62 50.55 17.21L50.55 17.21L49.21 18.89L48.33 18.89L48.33 18.89Q48.31 18.38 48.19 18.16L48.19 18.16L48.19 18.16Q48.06 17.95 47.80 17.95L47.80 17.95L47.80 17.93ZM66.04 22.72L65.59 23.63L62.55 23.63L59.85 18.79L59.23 18.41L59.58 17.72L60.23 17.72L60.23 17.72Q60.98 17.72 61.42 17.26L61.42 17.26L61.42 17.26Q61.85 16.80 61.85 15.96L61.85 15.96L61.85 15.96Q61.85 14.98 61.33 14.36L61.33 14.36L61.33 14.36Q60.80 13.73 59.79 13.73L59.79 13.73L59.79 13.73Q59.16 13.73 58.62 14.13L58.62 14.13L58.62 22.29L60.17 22.74L59.72 23.65L54.77 23.65L54.77 22.86L56.08 21.76L56.08 13.99L54.53 13.55L54.99 12.64L57.32 12.64L57.32 12.64Q58.53 12.64 59.71 12.56L59.71 12.56L59.71 12.56Q60.55 12.50 60.97 12.50L60.97 12.50L60.97 12.50Q62.05 12.50 62.88 12.89L62.88 12.89L62.88 12.89Q63.71 13.27 64.17 13.93L64.17 13.93L64.17 13.93Q64.62 14.59 64.62 15.40L64.62 15.40L64.62 15.40Q64.62 16.38 63.76 17.22L63.76 17.22L63.76 17.22Q62.89 18.06 61.64 18.48L61.64 18.48L62.76 18.80L64.58 22.05L66.04 22.72ZM71.32 15.95L71.32 15.95Q72.79 15.95 73.59 17.07L73.59 17.07L73.59 17.07Q74.40 18.19 74.37 20.17L74.37 20.17L69.33 20.17L69.33 20.17Q69.47 21.03 69.93 21.54L69.93 21.54L69.93 21.54Q70.39 22.05 71.13 22.05L71.13 22.05L71.13 22.05Q72.11 22.05 73.95 21.07L73.95 21.07L74.37 21.87L72.24 23.56L72.24 23.56Q71.41 23.77 70.32 23.77L70.32 23.77L70.32 23.77Q69.30 23.77 68.48 23.29L68.48 23.29L68.48 23.29Q67.66 22.81 67.21 21.97L67.21 21.97L67.21 21.97Q66.75 21.13 66.75 20.10L66.75 20.10L66.75 20.10Q66.75 19.00 67.47 18.04L67.47 18.04L67.47 18.04Q68.18 17.08 69.25 16.51L69.25 16.51L69.25 16.51Q70.32 15.95 71.32 15.95L71.32 15.95ZM70.55 17.57L70.55 17.57Q69.93 17.57 69.62 17.98L69.62 17.98L69.62 17.98Q69.31 18.40 69.29 19.25L69.29 19.25L71.96 19.25L71.96 19.25Q71.85 18.38 71.55 17.98L71.55 17.98L71.55 17.98Q71.25 17.57 70.53 17.57L70.53 17.57L70.55 17.57ZM80.46 23.77L80.46 23.77Q79.88 23.77 79.42 23.48L79.42 23.48L79.42 25.72L81.55 26.28L81.10 27.19L75.80 27.19L75.80 26.40L77.04 25.35L77.04 18.62L75.80 17.84L75.80 17.05L78.71 15.82L79.25 17.46L81.00 16.06L81.00 16.06Q81.45 15.95 82.03 15.95L82.03 15.95L82.03 15.95Q82.88 15.95 83.57 16.43L83.57 16.43L83.57 16.43Q84.27 16.91 84.65 17.75L84.65 17.75L84.65 17.75Q85.04 18.59 85.04 19.61L85.04 19.61L85.04 19.61Q85.04 20.72 84.32 21.68L84.32 21.68L84.32 21.68Q83.61 22.64 82.54 23.21L82.54 23.21L82.54 23.21Q81.47 23.77 80.47 23.77L80.47 23.77L80.46 23.77ZM81.13 17.89L81.13 17.89Q80.67 17.89 80.25 18.00L80.25 18.00L80.25 18.00Q79.84 18.12 79.41 18.41L79.41 18.41L79.41 20.62L79.41 20.62Q79.41 21.28 79.89 21.72L79.89 21.72L79.89 21.72Q80.37 22.16 81.27 22.16L81.27 22.16L81.27 22.16Q81.87 22.16 82.19 21.69L82.19 21.69L82.19 21.69Q82.50 21.21 82.50 20.29L82.50 20.29L82.50 20.29Q82.50 19.24 82.15 18.56L82.15 18.56L82.15 18.56Q81.80 17.89 81.14 17.89L81.14 17.89L81.13 17.89ZM94.96 22.72L94.51 23.63L91.32 23.63L91.32 22.41L89.74 23.66L89.74 23.66Q89.46 23.77 89.04 23.77L89.04 23.77L89.04 23.77Q87.70 23.77 87.10 23.11L87.10 23.11L87.10 23.11Q86.51 22.46 86.51 21.53L86.51 21.53L86.51 21.53Q86.51 20.99 86.84 20.46L86.84 20.46L86.84 20.46Q87.18 19.94 87.81 19.49L87.81 19.49L91.32 19.49L91.32 19.25L91.32 19.25Q91.32 18.48 90.90 18.12L90.90 18.12L90.90 18.12Q90.48 17.75 89.78 17.75L89.78 17.75L89.78 17.75Q88.80 17.75 87.22 18.52L87.22 18.52L86.80 17.72L88.75 16.16L88.75 16.16Q89.46 15.95 90.41 15.95L90.41 15.95L90.41 15.95Q91.98 15.95 92.84 16.66L92.84 16.66L92.84 16.66Q93.70 17.37 93.70 18.73L93.70 18.73L93.70 22.23L94.96 22.72ZM89.75 21.90L89.75 21.90Q90.47 21.90 91.32 21.31L91.32 21.31L91.32 20.41L89.07 20.41L89.07 20.41Q88.96 20.58 88.91 20.73L88.91 20.73L88.91 20.73Q88.86 20.87 88.86 21.06L88.86 21.06L88.86 21.06Q88.86 21.41 89.10 21.64L89.10 21.64L89.10 21.64Q89.35 21.88 89.75 21.88L89.75 21.88L89.75 21.90ZM100.63 22.72L100.17 23.63L95.75 23.63L95.75 22.85L96.99 21.80L96.99 18.55L95.75 17.72L95.75 16.94L98.49 15.82L99.37 15.82L99.37 22.30L100.63 22.72ZM98.17 11.61L98.17 11.61Q98.77 11.61 99.16 11.99L99.16 11.99L99.16 11.99Q99.54 12.38 99.54 12.95L99.54 12.95L99.54 12.95Q99.54 13.36 99.26 13.71L99.26 13.71L99.26 13.71Q98.98 14.06 98.56 14.27L98.56 14.27L98.56 14.27Q98.14 14.48 97.75 14.48L97.75 14.48L97.75 14.48Q97.16 14.48 96.78 14.09L96.78 14.09L96.78 14.09Q96.39 13.71 96.39 13.13L96.39 13.13L96.39 13.13Q96.39 12.73 96.67 12.38L96.67 12.38L96.67 12.38Q96.95 12.03 97.36 11.82L97.36 11.82L97.36 11.82Q97.78 11.61 98.17 11.61L98.17 11.61ZM106.09 17.93L106.09 17.93Q105.59 17.93 105.08 18.38L105.08 18.38L105.08 22.16L107.21 22.72L106.76 23.63L101.46 23.63L101.46 22.85L102.70 21.80L102.70 18.62L101.46 17.84L101.46 17.05L104.37 15.82L104.90 17.37L106.18 16.06L106.18 16.06Q106.47 15.95 106.86 15.95L106.86 15.95L106.86 15.95Q107.59 15.95 108.12 16.28L108.12 16.28L108.12 16.28Q108.64 16.62 108.85 17.21L108.85 17.21L107.51 18.89L106.62 18.89L106.62 18.89Q106.61 18.38 106.48 18.16L106.48 18.16L106.48 18.16Q106.36 17.95 106.09 17.95L106.09 17.95L106.09 17.93ZM114.02 15.95L114.02 15.95Q115.49 15.95 116.29 17.07L116.29 17.07L116.29 17.07Q117.10 18.19 117.07 20.17L117.07 20.17L112.03 20.17L112.03 20.17Q112.17 21.03 112.63 21.54L112.63 21.54L112.63 21.54Q113.09 22.05 113.83 22.05L113.83 22.05L113.83 22.05Q114.81 22.05 116.65 21.07L116.65 21.07L117.07 21.87L114.94 23.56L114.94 23.56Q114.11 23.77 113.02 23.77L113.02 23.77L113.02 23.77Q112 23.77 111.18 23.29L111.18 23.29L111.18 23.29Q110.36 22.81 109.91 21.97L109.91 21.97L109.91 21.97Q109.45 21.13 109.45 20.10L109.45 20.10L109.45 20.10Q109.45 19.00 110.17 18.04L110.17 18.04L110.17 18.04Q110.88 17.08 111.95 16.51L111.95 16.51L111.95 16.51Q113.02 15.95 114.02 15.95L114.02 15.95ZM113.25 17.57L113.25 17.57Q112.63 17.57 112.32 17.98L112.32 17.98L112.32 17.98Q112.01 18.40 111.99 19.25L111.99 19.25L114.66 19.25L114.66 19.25Q114.55 18.38 114.25 17.98L114.25 17.98L114.25 17.98Q113.95 17.57 113.23 17.57L113.23 17.57L113.25 17.57ZM123.13 17.93L123.13 17.93Q122.63 17.93 122.12 18.38L122.12 18.38L122.12 22.16L124.25 22.72L123.80 23.63L118.50 23.63L118.50 22.85L119.74 21.80L119.74 18.62L118.50 17.84L118.50 17.05L121.41 15.82L121.94 17.37L123.21 16.06L123.21 16.06Q123.51 15.95 123.90 15.95L123.90 15.95L123.90 15.95Q124.63 15.95 125.15 16.28L125.15 16.28L125.15 16.28Q125.68 16.62 125.89 17.21L125.89 17.21L124.54 18.89L123.66 18.89L123.66 18.89Q123.65 18.38 123.52 18.16L123.52 18.16L123.52 18.16Q123.40 17.95 123.13 17.95L123.13 17.95L123.13 17.93Z"></path></g><defs data-v-fde0c5aa=""><linearGradient data-v-fde0c5aa="" gradientTransform="rotate(25)" id="88ee1d46-f885-4358-9ee9-fe727022dbfc" x1="0%" y1="0%" x2="100%" y2="0%"><stop data-v-fde0c5aa="" offset="0%" stop-color="#0D7CE9" stop-opacity="1"></stop><stop data-v-fde0c5aa="" offset="100%" stop-color="#15CFF1" stop-opacity="1"></stop></linearGradient></defs><g data-v-fde0c5aa="" id="02ccdd8b-242b-4160-9d54-0baa1db1d66f" stroke="none" fill="url(#88ee1d46-f885-4358-9ee9-fe727022dbfc)" transform="matrix(0.44246634059359435,0,0,0.44246634059359435,36.61380936913707,130.55426986007907)"><switch><g><path d="M81.266 50.059V37.721L72.2 35.98a28.704 28.704 0 0 0-2.525-6.067l5.132-7.586-8.726-8.725-7.572 5.127c-1.932-1.081-4.001-1.911-6.174-2.529l-1.733-8.968h-12.34l-1.734 8.977a28.59 28.59 0 0 0-6.194 2.564l-7.544-5.118-8.725 8.72 5.136 7.582a28.728 28.728 0 0 0-2.534 6.114l-9.014 1.731V50.14l9.049 1.739a28.651 28.651 0 0 0 2.547 6.095l-5.168 7.639 8.727 8.725 7.664-5.188a28.684 28.684 0 0 0 6.063 2.487l1.742 9.028h12.338l1.741-9.029a28.595 28.595 0 0 0 6.105-2.521l7.663 5.194 8.725-8.722-5.19-7.665a28.772 28.772 0 0 0 2.555-6.126l9.052-1.737zM44.193 24.77l.216-.002c-.05 0-.057.002-.216.002zm0 38.328v-.002c.155.002.161.004.206.004l-.206-.002zm27.334-.814l-8.831 8.546-9.942-9.615a19.101 19.101 0 0 1-8.298 1.885h-.018.009a19.08 19.08 0 0 1-9.635-2.601l-5.978 5.763a5.916 5.916 0 0 1-4.133 1.658 5.915 5.915 0 0 1-4.134-1.659c-1.115-1.082-1.728-2.516-1.728-4.04a5.57 5.57 0 0 1 1.729-4.045l6.467-6.243a19.092 19.092 0 0 1-1.746-7.999c0-4.013 1.235-7.738 3.343-10.816l-2.159-1.08-4.829-7.373 2.174-2.096 7.565 4.636.989 1.852a19.084 19.084 0 0 1 12.069-4.289h-.001.014a19.645 19.645 0 0 1 2.9.218 11.072 11.072 0 0 1 1.901-2.441c2.146-2.074 4.994-3.217 8.021-3.217 1.004 0 2.003.128 2.969.381l1.621.423-6.704 6.485.485 1.757a19.301 19.301 0 0 1 3.739 3.544l1.777.462 6.658-6.446.425 1.524c1.065 3.815-.062 7.913-2.942 10.694a11.31 11.31 0 0 1-2.138 1.625c.296 1.338.452 2.728.452 4.154 0 3.129-.75 6.083-2.079 8.692l9.988 9.661z"></path><path d="M38.937 48.296l2.691-2.605-3.472-3.359-5.162 5.002-11.772 11.363a4.66 4.66 0 0 0-1.441 3.366c0 1.212.479 2.432 1.441 3.364 1.923 1.859 5.036 1.859 6.959 0L39.8 54.223l2.623-2.553-3.486-3.374zM42.087 38.464l3.476 3.363 2.691-2.605 3.461 3.349 1.438-1.401s2.2-2.256 1.324-1.269c3.506.945 7.42.084 10.175-2.58 2.735-2.641 3.631-6.393 2.69-9.764L61.44 33.27l-5.789-1.503-1.545-5.593 5.902-5.71c-3.485-.911-7.362-.044-10.098 2.602-2.87 2.776-3.713 6.774-2.533 10.272l-5.29 5.126z"></path><path d="M62.695 69.364l7.477-7.236-22.052-21.33-2.691 2.605-13.196-12.767-1.559-2.918-6.725-4.122-1.089 1.05 4.262 6.507 3.018 1.509 13.193 12.766-2.691 2.606z"></path></g></switch></g><!----></svg>